<svg width="36" height="35" viewBox="0 0 36 35" fill="none" xmlns="http://www.w3.org/2000/svg">
<path d="M2.8129 8.04775C2.8129 5.32249 5.09492 3.1053 7.89986 3.1053H27.7406C30.5457 3.1053 32.8276 5.32249 32.8276 8.04775V27.325C32.8276 30.0502 30.5457 32.2675 27.7406 32.2675H7.89986C5.09492 32.2675 2.8129 30.0502 2.8129 27.325V8.04775ZM7.89986 35H27.7406C32.0967 35 35.6406 31.5573 35.6406 27.325V8.04775C35.6406 3.81548 32.0967 0.372314 27.7406 0.372314H7.89986C3.54383 0.372314 0 3.81548 0 8.04775V27.325C0 31.5573 3.54383 35 7.89986 35Z" fill="#EEEEF0"/>
</svg>
